<svg xmlns="http://www.w3.org/2000/svg" viewBox="0 0 200 150" width="200" height="150">
  <!-- Eagle silhouette -->
  <g fill="#000000">
    <!-- Left wing -->
    <path d="M20 75 C15 70, 10 65, 8 60 C6 55, 8 50, 12 48 C20 45, 30 50, 40 55 C50 60, 60 65, 70 70 C75 72, 80 74, 82 76 L82 78 C80 80, 75 82, 70 84 C60 88, 50 92, 40 95 C30 98, 20 95, 15 90 C12 85, 15 80, 20 75 Z"/>

    <!-- Right wing -->
    <path d="M180 75 C185 70, 190 65, 192 60 C194 55, 192 50, 188 48 C180 45, 170 50, 160 55 C150 60, 140 65, 130 70 C125 72, 120 74, 118 76 L118 78 C120 80, 125 82, 130 84 C140 88, 150 92, 160 95 C170 98, 180 95, 185 90 C188 85, 185 80, 180 75 Z"/>

    <!-- Body and head -->
    <path d="M100 20 C105 18, 110 20, 112 25 C114 30, 112 35, 110 40 C108 45, 106 50, 105 55 L105 60 C106 65, 108 70, 110 75 C112 80, 114 85, 115 90 C116 95, 115 100, 112 105 C110 110, 105 112, 100 110 C95 108, 90 105, 88 100 C86 95, 88 90, 90 85 C92 80, 94 75, 95 70 L95 65 C94 60, 92 55, 90 50 C88 45, 86 40, 85 35 C84 30, 86 25, 90 22 C95 18, 100 20, 100 20 Z"/>

    <!-- Tail feathers -->
    <path d="M95 105 C90 108, 85 110, 82 115 C80 120, 82 125, 85 128 C90 130, 95 128, 100 125 C105 128, 110 130, 115 128 C118 125, 120 120, 118 115 C115 110, 110 108, 105 105 L100 108 L95 105 Z"/>

    <!-- Beak -->
    <path d="M105 25 L115 30 L112 35 L105 32 Z"/>
  </g>

  <!-- White oval on chest -->
  <ellipse cx="100" cy="70" rx="20" ry="25" fill="#ffffff" stroke="#000000" stroke-width="2"/>

  <!-- Medical cross -->
  <g fill="#000000">
    <!-- Vertical bar -->
    <rect x="97" y="60" width="6" height="20" rx="1"/>
    <!-- Horizontal bar -->
    <rect x="92" y="67" width="16" height="6" rx="1"/>
  </g>
</svg>
